<?xml version="1.0" encoding="utf-8"?>
<svg version="1.1" xmlns="http://www.w3.org/2000/svg" xmlns:xlink="http://www.w3.org/1999/xlink" x="0px" y="0px"
	 viewBox="0 0 320 320" style="enable-background:new 0 0 320 320;" xml:space="preserve">
<style type="text/css">
	.st0{fill:#FFFFFF;}
	.st1{fill:#F7971E}
	.st2{fill:#3A79B2}
</style>
<g id="Layer_1">
	<g id="circle">
		<path class="st2" d="M160,12.5c39.1,0,75.9,15.3,103.6,43c27.7,27.8,42.9,64.7,42.9,104s-15.2,76.2-42.9,104
			c-27.7,27.8-64.5,43-103.6,43s-75.9-15.3-103.6-43c-27.7-27.8-42.9-64.7-42.9-104s15.2-76.2,42.9-104
			C84.1,27.8,120.9,12.5,160,12.5 M160,7.5C76.3,7.5,8.5,75.6,8.5,159.5s67.8,152,151.5,152s151.5-68.1,151.5-152S243.7,7.5,160,7.5
			L160,7.5z"/>
	</g>
	<g id="Y">
		<path class="st1" d="M105.1,231.1v-52.5c0-1.2-0.3-2.4-0.9-3.5L55.1,91.5c-2.7-4.6,0.6-10.4,6-10.4h23.3c2.6,0,4.9,1.4,6.1,3.7
			l26.6,50.9c2.5,4.8,9.3,5,12,0.3l4.4-7.3c1.1-1.9,3-3.1,5.2-3.3l22.4-2.4c5.6-0.6,9.5,5.5,6.7,10.4l-26.4,44.8
			c-0.6,1.1-1,2.3-1,3.5v49.4c0,3.8-3.1,6.9-6.9,6.9H112C108.2,238,105.1,234.9,105.1,231.1z"/>
	</g>
	<g id="money">
		<path class="st2" d="M146.5,104.4l8.9-19.5c1.1-2.3,3.3-3.9,5.9-4c5.6-0.3,15.7-0.9,23.7-1.3c5.2-0.3,8.9,5.2,6.6,9.9l-8.9,18.3
			c-1,2.1-3.1,3.6-5.5,3.9l-23.7,2.5C148.2,114.7,144.3,109.2,146.5,104.4z"/>
	</g>
	<g id="P">
		<path class="st2" d="M196.4,100.1l8.5-16.9c1.3-2.6,4.1-4.1,6.9-3.8c74.1,8,86.8,106.5-20.8,105.8c-3.8,0-7,3.1-7,6.9v39
			c0,3.8-3.1,6.9-6.9,6.9h-20.5c-3.8,0-6.9-3.1-6.9-6.9v-50.4c0-1.2,0.3-2.5,1-3.5L171,143c3.5-5.9,12.6-3.6,12.8,3.3l0.1,2.8
			c0.1,3,2.2,5.6,5.1,6.4c42.5,11.8,69.4-42.7,13.2-45.4C197.2,109.9,194.2,104.5,196.4,100.1z"/>
	</g>
</g>
</svg>
